<svg id="Layer_1" data-name="Layer 1" xmlns="http://www.w3.org/2000/svg" viewBox="0 0 165.47 166.81"><defs><style>.cls-1{fill:#fff;}</style></defs><path class="cls-1" d="M26.93,139.21l61.54-33a4.35,4.35,0,0,1,5,1l9.12,9.12a2.06,2.06,0,0,1-.74,3.56L11.46,166.05A8.06,8.06,0,0,1,.74,155.42L46.28,64.33a2.07,2.07,0,0,1,3.56-.75l9.2,9.2c1.5,1.49,1.66,2.66.83,5Z"/><path class="cls-1" d="M138.54,27.6,77,60.63a4.36,4.36,0,0,1-5-1l-9.12-9.12A2.07,2.07,0,0,1,63.66,47L154,.77a8.06,8.06,0,0,1,10.73,10.62l-45.55,91.1a2.06,2.06,0,0,1-3.56.74l-9.2-9.2c-1.49-1.49-1.66-2.65-.83-5Z"/></svg>