<svg id="Layer_1" data-name="Layer 1" xmlns="http://www.w3.org/2000/svg" viewBox="0 0 332.77 332.77"><defs><style>.cls-1{fill:#fff;}</style></defs><path class="cls-1" d="M110.58,222.19l61.54-33a4.35,4.35,0,0,1,5,1l9.12,9.12a2.06,2.06,0,0,1-.74,3.56L95.11,249A8.06,8.06,0,0,1,84.39,238.4l45.54-91.09a2.07,2.07,0,0,1,3.56-.75l9.2,9.2c1.5,1.49,1.66,2.66.83,5Z"/><path class="cls-1" d="M222.19,110.58l-61.54,33a4.36,4.36,0,0,1-5-1l-9.12-9.12a2.07,2.07,0,0,1,.75-3.56l90.35-46.18a8.06,8.06,0,0,1,10.73,10.62l-45.55,91.1a2.06,2.06,0,0,1-3.56.74l-9.2-9.2c-1.49-1.49-1.66-2.65-.83-5Z"/><path class="cls-1" d="M166.38,332.77C74.64,332.77,0,258.13,0,166.39S74.64,0,166.38,0,332.77,74.64,332.77,166.39,258.13,332.77,166.38,332.77Zm0-315c-81.92,0-148.57,66.65-148.57,148.58S84.46,315,166.38,315,315,248.32,315,166.39,248.32,17.81,166.38,17.81Z"/></svg>