<?xml version="1.0" encoding="UTF-8"?>
<svg id="Layer_1" xmlns="http://www.w3.org/2000/svg" version="1.1" viewBox="0 0 114 25">
  <!-- Generator: Adobe Illustrator 30.1.0, SVG Export Plug-In . SVG Version: 2.1.1 Build 136)  -->
  <defs>
    <style>
      .st0 {
        fill: #f4eeec;
      }

      .st1 {
        display: none;
      }
    </style>
  </defs>
  <path class="st0" d="M.6,19.5h0c2.3-.7,2.4-.9,2.4-3.1V4.9c0-2.2,0-2.3-2.4-2.9h0c0-.1,13.7-.1,13.7-.1l.7,5.1h-.1c-2.2-4-3.9-4.6-5.5-4.6h-1.8v8.4c2.7,0,3.3-2,3.9-3.8h.1v8h-.1c-.6-1.7-1.1-3.7-3.9-3.8v5.3c0,2.2,0,2.3,2.6,3h0c0,.1-9.6.1-9.6.1Z"/>
  <path class="st0" d="M16.1,16.8V4.1c0-.7,0-.7-.9-1.1l-1.1-.4h0c0,0,6.2-1.7,6.2-1.7h0c-.1.8-.2,2.2-.2,3.1v12.8c0,1.9,0,2.1,2.1,2.7h0c0,.1-8.4.1-8.4.1h0c2.1-.7,2.2-.8,2.2-2.8"/>
  <path class="st0" d="M27.9,6.4c3.7,0,5.3,2.1,5.1,5.3h-7.5c0,2.1.8,5.3,3.6,5.3s3-.7,4-2.1h.1c-.5,2.7-2.5,5-5.4,5s-6.4-2.8-6.4-6.7,2.5-6.7,6.5-6.7M25.5,11.3h4.1c.3-2.2-.2-4.5-1.7-4.5s-2.3,2.2-2.4,4.5"/>
  <path class="st0" d="M33.3,18.1c0-1.1.8-2.3,2.3-3.3-1.2-.9-1.8-2.2-1.8-3.7,0-2.7,2-4.7,5.4-4.7s2.1.5,3.2.5.4,0,.6,0l2.2-.3c.3,0,.5,0,.6.2.2.3.4.9.4,1.3s-.1.5-.3.5l-2.5-.7h0c.8.9,1.2,2.1,1.2,3.3,0,2.7-2,4.7-5.3,4.7s-2.4-.3-3.3-.8c-1.2,1-1,1.8.8,1.8h5c2.7,0,3.8,1.6,3.4,3.7-.5,3.1-4.8,4.6-7.6,4.6s-4.1-1.4-3.9-2.8c0-.9.9-1.8,2.2-2.3-1.7-.1-2.5-.9-2.5-2M39.1,22.6c1.3,0,4.9-.2,5.3-1.7.2-.8-1-.9-2.1-.9h-6.2c-1.3,2.1,1.1,2.6,3,2.6M39.2,15.4c1.1,0,1.3-2.1,1.3-4.3s-.3-4.3-1.3-4.3-1.4,2.1-1.4,4.3.3,4.3,1.4,4.3"/>
  <path class="st0" d="M47.8,16.8v-7.4c0-.7,0-.8-.9-1.1l-1.3-.4h0c0,0,6.4-1.7,6.4-1.7h0c-.1.8-.2,2.1-.2,2.8h.1c.8-1.1,2.2-2.6,4.2-2.6s3.1.9,3.5,2.6h0c.8-1.4,2.4-2.6,4.3-2.6s3.6,1.4,3.6,3.9v6.5c0,1.9,0,2.1,2.1,2.7h0c0,.1-7.8.1-7.8.1h0c1.6-.7,1.6-.8,1.6-2.8v-6.9c0-1.5-.7-2.1-1.5-2.1s-1.7.6-2.3,1.6v7.3c0,1.9,0,2.1,1.6,2.7h0c0,.1-7.3.1-7.3.1h0c1.6-.7,1.6-.8,1.6-2.8v-6.9c0-1.5-.7-2.1-1.5-2.1s-1.7.8-2.3,1.8v7.2c0,1.9,0,2.1,1.6,2.7h0c0,.1-7.8.1-7.8.1h0c2.1-.7,2.2-.8,2.2-2.8"/>
  <path class="st0" d="M75.8,6.4c2.8,0,4.1,1.4,4.1,4.8v5.6c0,1.1.3,1.6,1,1.6s.8-.2,1.1-.6h.1c-.6,1.2-1.6,2.1-3.3,2.1s-2.5-.7-2.9-1.8c-1,.9-2.4,1.8-4,1.8s-2.7-1-2.7-2.7,1.2-2.6,3.1-3.2l3.5-1.2v-1.1c0-3.2-1.1-4.2-2.2-4.2s-1.8.4-1.8,1.2.5,1.4,1.2,2.6c-.5.8-1.4,1.3-2.2,1.3s-1.6-.5-1.6-1.7c0-2.3,3.7-4.5,6.6-4.5M73.9,18.2c.5,0,1.1-.2,1.8-.6v-4.6l-.9.6c-1.1.6-2.1,1.2-2.1,2.9s.1,1.7,1.2,1.7"/>
  <path class="st1" d="M80.7,8.6l5.6-5.3h.1v3.5h4.1l-.6,1.9h-3.5v7c0,1.3.6,2.2,1.9,2.2s1.8-.8,2.3-1.8h.2c-.9,2.5-2.4,3.7-4.6,3.7s-3.8-1.5-3.8-4.4v-6.7h-1.6Z"/>
  <path class="st0" d="M110.1,16.8l-3.4-5.8,2.3-2.4c1-1,1.3-1.4,3.2-1.7h0c0-.1-6.8-.1-6.8-.1h0c1.9.4,2.4.8,1.7,1.9l-1.4,2.2c-.8,1.2-1.5,1.5-2.6,1.8V4c0-.8,0-2.3.2-3h0c0,0-6.1,1.6-6.1,1.6h0c0,0,1.1.5,1.1.5.8.3.9.4.9,1.1v12.6c0,1.7,0,2-1.4,2.5-1.4-.4-1.4-.8-1.4-2.5v-7.7c0-.8,0-2.3.2-3h0c0,0-6,1.8-6,1.8l.3-1h-4.1v-3.4h-.1c0,0-5.6,5.2-5.6,5.2h0c0,.1,1.5.1,1.5.1v6.7c0,2.9,1.6,4.4,3.8,4.4s3.7-1.2,4.6-3.6h-.2c-.5.9-1.3,1.7-2.3,1.7s-1.9-.9-1.9-2.2v-7h3.5l.2-.8,1,.4c.8.3.9.4.9,1.1v7.4c0,1.9,0,2.1-2.1,2.7h0c0,.1,7,.1,7,.1h8.2c-1.9-.7-2-.8-2-2.8v-3.3c1,0,1.1.2,1.4.6l1.6,2.7c1.2,2,1.2,2.2-.6,2.7h0c0,.1,8.2.1,8.2.1h0c-2.2-.7-2.4-.7-3.5-2.8"/>
  <path class="st0" d="M93.6.9c1.4,0,2.5,1.1,2.5,2.5s-1.1,2.5-2.5,2.5-2.5-1.1-2.5-2.5,1.1-2.5,2.5-2.5"/>
</svg>