<svg xmlns="http://www.w3.org/2000/svg" width="32" height="32" viewBox="0 0 24 24"><path fill="currentColor" d="M12 11.385q-1.237 0-2.119-.882T9 8.385t.881-2.12T12 5.386t2.119.88t.881 2.12t-.881 2.118t-2.119.882m-7 7.23V16.97q0-.619.36-1.158q.361-.54.97-.838q1.416-.679 2.834-1.018q1.417-.34 2.836-.34t2.837.34t2.832 1.018q.61.298.97.838q.361.539.361 1.158v1.646zm1-1h12v-.646q0-.332-.215-.625q-.214-.292-.593-.494q-1.234-.598-2.546-.916T12 14.616t-2.646.318t-2.546.916q-.38.202-.593.494Q6 16.637 6 16.97zm6-7.23q.825 0 1.413-.588T14 8.384t-.587-1.412T12 6.384t-1.412.588T10 8.384t.588 1.413t1.412.587m0 7.232"/></svg>