<svg xmlns="http://www.w3.org/2000/svg" viewBox="0 0 16 16" fill="none">
  <path fill="#000" d="M8 0C5.829 0 5.556.01 4.703.048 3.85.088 3.269.222 2.76.42a3.9 3.9 0 0 0-1.417.923A3.9 3.9 0 0 0 .42 2.76C.222 3.268.087 3.85.048 4.7.01 5.555 0 5.827 0 8.001c0 2.172.01 2.444.048 3.297.04.852.174 1.433.372 1.942.205.526.478.972.923 1.417.444.445.89.719 1.416.923.51.198 1.09.333 1.942.372C5.555 15.99 5.827 16 8 16c2.173 0 2.445-.01 3.298-.048.851-.04 1.434-.174 1.943-.372a3.9 3.9 0 0 0 1.416-.923 3.9 3.9 0 0 0 .923-1.417c.198-.509.333-1.09.372-1.942.038-.853.048-1.125.048-3.297 0-2.174-.01-2.446-.048-3.3-.04-.85-.174-1.433-.372-1.94a3.9 3.9 0 0 0-.923-1.417A3.9 3.9 0 0 0 13.24.42c-.51-.198-1.092-.333-1.943-.372C10.445.01 10.173 0 8 0Zm0 1.442c2.136 0 2.389.008 3.232.046.78.036 1.204.166 1.486.275.374.145.64.318.92.598.28.28.453.546.598.92.109.282.239.706.275 1.486.038.843.046 1.096.046 3.233 0 2.136-.008 2.389-.046 3.232-.036.78-.166 1.204-.275 1.486a2.47 2.47 0 0 1-.598.92c-.28.28-.546.453-.92.598-.282.109-.706.239-1.486.275-.843.038-1.096.046-3.233.046-2.136 0-2.389-.008-3.232-.046-.78-.036-1.204-.166-1.486-.275a2.47 2.47 0 0 1-.92-.598 2.47 2.47 0 0 1-.598-.92c-.109-.282-.239-.706-.275-1.486-.038-.843-.046-1.096-.046-3.233 0-2.136.008-2.389.046-3.232.036-.78.166-1.204.275-1.486.145-.374.318-.64.598-.92.28-.28.546-.453.92-.598.282-.109.706-.239 1.486-.275.843-.038 1.096-.046 3.233-.046Zm0 2.458A4.1 4.1 0 1 0 8 12.1 4.1 4.1 0 0 0 8 3.9Zm0 6.76A2.66 2.66 0 1 1 8 5.34a2.66 2.66 0 0 1 0 5.32Zm4.262-6.922a.96.96 0 1 0 0 1.92.96.96 0 0 0 0-1.92Z"/>
</svg>
