<svg xmlns="http://www.w3.org/2000/svg" viewBox="0 0 16 16" fill="none">
  <path fill="#000" d="M0 1.146C0 .513.526 0 1.175 0h13.65C15.474 0 16 .513 16 1.146v13.708c0 .633-.526 1.146-1.175 1.146H1.175C.526 16 0 15.487 0 14.854V1.146ZM4.943 13.5V6.169H2.542V13.5h2.401ZM3.742 5.17c.837 0 1.358-.554 1.358-1.248-.015-.709-.521-1.248-1.342-1.248-.822 0-1.359.539-1.359 1.248 0 .694.521 1.248 1.327 1.248h.016Zm4.91 8.33V9.359c0-.222.016-.444.082-.603.18-.444.59-.904 1.277-.904.9 0 1.26.682 1.26 1.682V13.5h2.401V9.258c0-2.271-1.211-3.327-2.826-3.327-1.304 0-1.885.717-2.211 1.22h.03V6.17h-2.4c.03.634 0 7.331 0 7.331h2.4Z"/>
</svg>
