<svg id="Layer_1" data-name="Layer 1" xmlns="http://www.w3.org/2000/svg" viewBox="0 0 841.89 220.54"><defs><style>.cls-1{fill:#fff;}</style></defs><path class="cls-1" d="M0,24.19A2.13,2.13,0,0,1,2,22H29.68a39.65,39.65,0,1,1,0,79.3H2a2.13,2.13,0,0,1-2-2.15ZM29.57,84.57c12.8,0,21.07-10.08,21.07-23S42.37,38.69,29.57,38.69H17.67V84.57Z"/><path class="cls-1" d="M89.8,24.19A2.22,2.22,0,0,1,92,22h13.59a2.23,2.23,0,0,1,2.15,2.15v75a2.23,2.23,0,0,1-2.15,2.15H92a2.22,2.22,0,0,1-2.15-2.15Z"/><path class="cls-1" d="M132.51,22.94a2.13,2.13,0,0,1,2.16-2h1.69c1.14,0,1.93.8,2.84,1.71l43.5,41.8h.11V24.19A2.15,2.15,0,0,1,185,22h13.59a2.23,2.23,0,0,1,2.15,2.15v76.24a2,2,0,0,1-2.15,2h-1.13a3.66,3.66,0,0,1-2.84-1.24l-44.06-44.3h-.12V99.19a2.15,2.15,0,0,1-2.15,2.15H134.78a2.23,2.23,0,0,1-2.15-2.15Z"/><path class="cls-1" d="M260.39,34,240.9,98.62a4.21,4.21,0,0,1-4.07,2.72H224.36a2,2,0,0,1-1.92-3l30.18-93.3A7.79,7.79,0,0,1,267.21,5l31.13,93.37a2,2,0,0,1-1.93,3H283.84c-2,0-2.95-.68-4-2.83Z"/><path class="cls-1" d="M260.39,186.53l19.48-64.61A4.23,4.23,0,0,1,284,119.2h12.46a2,2,0,0,1,1.93,2.94l-30.19,93.3a7.78,7.78,0,0,1-14.58.08l-31.13-93.38a2,2,0,0,1,1.92-2.94h12.58c2,0,2.94.68,4,2.83Z"/><path class="cls-1" d="M320,24.19A2.15,2.15,0,0,1,322.17,22H356c14.39,0,24.7,11,24.7,24.47,0,10.42-6.23,18.8-16.77,22.77l15.52,28.77a2.14,2.14,0,0,1-1.92,3.29H362.5a2.07,2.07,0,0,1-1.81-1l-15.07-30H337.8V99.19a2.22,2.22,0,0,1-2.15,2.15H322.17A2.15,2.15,0,0,1,320,99.19Zm34.55,31.72a8.71,8.71,0,0,0,8.61-9.06,8.32,8.32,0,0,0-8.61-8.61H337.8V55.91Z"/><path class="cls-1" d="M401.94,24.19A2.23,2.23,0,0,1,404.09,22h13.6a2.23,2.23,0,0,1,2.15,2.15v75a2.23,2.23,0,0,1-2.15,2.15h-13.6a2.23,2.23,0,0,1-2.15-2.15Z"/><path class="cls-1" d="M480.84,20.9c11.33,0,19.71,3.52,27.42,10.54a2.1,2.1,0,0,1,.11,3.17l-8.84,9.18a2,2,0,0,1-2.83,0A22.28,22.28,0,0,0,481.41,38c-12.8,0-22.21,10.65-22.21,23.34s9.52,23,22.32,23a22.23,22.23,0,0,0,15.18-5.44,2.25,2.25,0,0,1,2.95.11l8.83,9.4a2.26,2.26,0,0,1-.11,3.06,38.87,38.87,0,0,1-27.53,11,40.79,40.79,0,1,1,0-81.57Z"/><path class="cls-1" d="M43.77,195.55l35.45-76.24a2.31,2.31,0,0,1,1.93-1.25h1.13a2.3,2.3,0,0,1,1.93,1.25l35.46,76.24a2,2,0,0,1-1.93,2.95H105.17c-2,0-3-.68-4-2.84l-4.08-8.94H66.31l-4.08,9.06a4.22,4.22,0,0,1-4.08,2.72H45.69A2,2,0,0,1,43.77,195.55Zm46.56-24.24-8.61-18.69H81.6l-8.49,18.69Z"/><path class="cls-1" d="M137.63,121.35a2.13,2.13,0,0,1,2-2.15h27.64a39.65,39.65,0,1,1,0,79.3H139.67a2.13,2.13,0,0,1-2-2.15Zm29.56,60.38c12.81,0,21.08-10.08,21.08-23s-8.27-22.88-21.08-22.88H155.3v45.88Z"/><path class="cls-1" d="M320,121.35a2.15,2.15,0,0,1,2.15-2.15h46.9a2.15,2.15,0,0,1,2.15,2.15V133.7a2.15,2.15,0,0,1-2.15,2.15H337.69V149.9h25.83a2.23,2.23,0,0,1,2.15,2.15V164.4a2.15,2.15,0,0,1-2.15,2.15H337.69v15.29h31.38a2.15,2.15,0,0,1,2.15,2.16v12.35a2.15,2.15,0,0,1-2.15,2.15h-46.9a2.15,2.15,0,0,1-2.15-2.15Z"/><path class="cls-1" d="M391.94,120.1a2.13,2.13,0,0,1,2.16-2h1.7c1.13,0,1.92.8,2.83,1.7l43.5,41.8h.11V121.35a2.15,2.15,0,0,1,2.16-2.15H458a2.23,2.23,0,0,1,2.15,2.15v76.24a2,2,0,0,1-2.15,2h-1.13a3.64,3.64,0,0,1-2.83-1.24L410,154.09h-.12v42.26a2.15,2.15,0,0,1-2.15,2.15H394.21a2.23,2.23,0,0,1-2.15-2.15Z"/><path class="cls-1" d="M495.71,135.85h-16.2a2.15,2.15,0,0,1-2.15-2.15V121.35a2.15,2.15,0,0,1,2.15-2.15h50.3a2.15,2.15,0,0,1,2.15,2.15V133.7a2.15,2.15,0,0,1-2.15,2.15h-16.2v60.5a2.23,2.23,0,0,1-2.15,2.15h-13.6a2.23,2.23,0,0,1-2.15-2.15Z"/><path class="cls-1" d="M548.74,121.35a2.23,2.23,0,0,1,2.15-2.15h13.94a2.15,2.15,0,0,1,2.15,2.15v47.24c0,8.27,5.89,12.92,13.93,12.92s14.16-4.65,14.16-12.92V121.35a2.15,2.15,0,0,1,2.16-2.15h13.93a2.23,2.23,0,0,1,2.15,2.15V169.5c0,17.22-14.5,30.13-32.4,30.13s-32.17-12.91-32.17-30.13Z"/><path class="cls-1" d="M637.72,121.35a2.15,2.15,0,0,1,2.15-2.15h33.87c14.39,0,24.7,11,24.7,24.47,0,10.42-6.23,18.8-16.77,22.77l15.53,28.77a2.15,2.15,0,0,1-1.93,3.29H680.2a2.1,2.1,0,0,1-1.81-1l-15.07-30h-7.81v28.89a2.23,2.23,0,0,1-2.16,2.15H639.87a2.15,2.15,0,0,1-2.15-2.15Zm34.55,31.72a8.71,8.71,0,0,0,8.61-9.06,8.32,8.32,0,0,0-8.61-8.61H655.51v17.67Z"/><path class="cls-1" d="M719.64,121.35a2.15,2.15,0,0,1,2.15-2.15h46.9a2.15,2.15,0,0,1,2.16,2.15V133.7a2.15,2.15,0,0,1-2.16,2.15H737.31V149.9h25.83a2.23,2.23,0,0,1,2.16,2.15V164.4a2.15,2.15,0,0,1-2.16,2.15H737.31v15.29h31.38a2.16,2.16,0,0,1,2.16,2.16v12.35a2.15,2.15,0,0,1-2.16,2.15h-46.9a2.15,2.15,0,0,1-2.15-2.15Z"/><path class="cls-1" d="M789.66,190.91a2.56,2.56,0,0,1-.45-3.4l5.21-9.18a2.67,2.67,0,0,1,3.85-.68c3.18,2.15,9,6.23,16.09,6.23,4.53,0,7.82-2.83,7.82-6.79,0-4.76-4.19-7.82-11.67-11.44-11-5.33-22-11.45-22-25,0-11.22,8.72-22.55,26.17-22.55,11.78,0,20.84,6,24.24,8.5,1.36.79,1.14,2.83.68,3.63l-5.77,8.72c-.8,1.25-2.72,2.15-5,.79-2.6-1.81-9.29-6.12-15.29-6.12-4.76,0-6.91,2.95-6.91,6.23,0,3.74,4.42,6.69,12.35,10.54,10,4.87,22.88,10.42,22.88,25.83,0,11.67-10.08,23.45-26.74,23.45C800.43,199.63,792.27,193.51,789.66,190.91Z"/></svg>